<?xml version="1.0" encoding="utf-8" standalone="no"?>
<!DOCTYPE svg PUBLIC "-//W3C//DTD SVG 1.1//EN"
  "http://www.w3.org/Graphics/SVG/1.1/DTD/svg11.dtd">
<svg xmlns:xlink="http://www.w3.org/1999/xlink" width="360pt" height="216pt" viewBox="0 0 360 216" xmlns="http://www.w3.org/2000/svg" version="1.1">
 <metadata>
  <rdf:RDF xmlns:dc="http://purl.org/dc/elements/1.1/" xmlns:cc="http://creativecommons.org/ns#" xmlns:rdf="http://www.w3.org/1999/02/22-rdf-syntax-ns#">
   <cc:Work>
    <dc:type rdf:resource="http://purl.org/dc/dcmitype/StillImage"/>
    <dc:date>2026-01-06T19:21:46.849210</dc:date>
    <dc:format>image/svg+xml</dc:format>
    <dc:creator>
     <cc:Agent>
      <dc:title>Matplotlib v3.10.8, https://matplotlib.org/</dc:title>
     </cc:Agent>
    </dc:creator>
   </cc:Work>
  </rdf:RDF>
 </metadata>
 <defs>
  <style type="text/css">*{stroke-linejoin: round; stroke-linecap: butt}</style>
 </defs>
 <g id="figure_1">
  <g id="patch_1">
   <path d="M 0 216 
L 360 216 
L 360 0 
L 0 0 
L 0 216 
z
" style="fill: none"/>
  </g>
  <g id="axes_1">
   <g id="patch_2">
    <path d="M 206.181818 107.999951 
C 206.181818 92.865549 202.682445 77.934108 195.957916 64.375687 
C 189.233387 50.817265 179.464063 38.995516 167.415486 29.836815 
C 155.36691 20.678114 141.36224 14.428109 126.498909 11.576562 
C 111.635578 8.725015 96.312239 9.348409 81.72966 13.397892 
C 67.147081 17.447376 53.696384 24.814337 42.431592 34.921487 
C 31.166801 45.028637 22.39005 57.604889 16.789104 71.664743 
C 11.188158 85.724597 8.91324 100.890951 10.142619 115.975339 
C 11.371997 131.059726 16.072698 145.657566 23.876365 158.624942 
L 49.113452 143.437445 
C 43.650885 134.360281 40.360395 124.141794 39.49983 113.582722 
C 38.639265 103.023651 40.231707 92.407203 44.152369 82.565305 
C 48.073032 72.723408 54.216757 63.920031 62.102111 56.845026 
C 69.987465 49.770021 79.402953 44.613148 89.610759 41.77851 
C 99.818564 38.943871 110.544901 38.507496 120.949233 40.503579 
C 131.353565 42.499661 141.156834 46.874665 149.590837 53.285756 
C 158.02484 59.696847 164.863367 67.972071 169.570538 77.462966 
C 174.277708 86.953861 176.727269 97.405869 176.727269 107.999951 
z
" style="fill: #1f77b4; stroke: #ffffff; stroke-linejoin: miter"/>
   </g>
   <g id="patch_3">
    <path d="M 23.876362 158.624938 
C 32.174846 172.414553 43.738038 183.954523 57.544313 192.22526 
C 71.350586 200.495998 86.98097 205.246542 103.054584 206.057198 
C 119.128197 206.867853 135.157276 203.714001 149.725623 196.8743 
C 164.29397 190.034599 176.959544 179.716576 186.603307 166.831853 
L 163.022312 149.182282 
C 156.271677 158.201588 147.405775 165.424204 137.207933 170.211995 
C 127.01009 174.999786 115.789735 177.207483 104.538205 176.640024 
C 93.286676 176.072565 82.345407 172.747184 72.681016 166.957667 
C 63.016623 161.168151 54.922389 153.090172 49.11345 143.437442 
z
" style="fill: #ff7f0e; stroke: #ffffff; stroke-linejoin: miter"/>
   </g>
   <g id="patch_4">
    <path d="M 186.603307 166.831853 
C 189.830953 162.519502 192.698239 157.948863 195.176155 153.166191 
C 197.654072 148.383516 199.734216 143.405004 201.395508 138.281122 
L 173.376852 129.196771 
C 172.213948 132.783488 170.757847 136.268446 169.023305 139.616319 
C 167.288764 142.964189 165.281664 146.163637 163.022312 149.182282 
z
" style="fill: #2ca02c; stroke: #ffffff; stroke-linejoin: miter"/>
   </g>
   <g id="patch_5">
    <path d="M 201.395508 138.281122 
C 202.731319 134.161109 203.793041 129.957242 204.573722 125.697027 
C 205.354402 121.436813 205.852334 117.129583 206.064238 112.803616 
L 176.644963 111.362516 
C 176.49663 114.390693 176.148078 117.405754 175.601602 120.387904 
C 175.055125 123.370054 174.31192 126.312762 173.376852 129.196771 
z
" style="fill: #d62728; stroke: #ffffff; stroke-linejoin: miter"/>
   </g>
   <g id="patch_6">
    <path d="M 206.064238 112.803616 
C 206.101159 112.049848 206.129389 111.295704 206.148924 110.541285 
C 206.168458 109.786867 206.17929 109.032225 206.181426 108.277557 
L 176.726995 108.194275 
C 176.7255 108.722543 176.717917 109.250792 176.704243 109.778885 
C 176.690569 110.306978 176.670808 110.834879 176.644963 111.362516 
z
" style="fill: #9467bd; stroke: #ffffff; stroke-linejoin: miter"/>
   </g>
   <g id="patch_7">
    <path d="M 206.181426 108.277557 
C 206.181555 108.231286 206.181654 108.185016 206.181719 108.138745 
C 206.181783 108.092475 206.181818 108.046204 206.181818 107.999933 
L 176.727269 107.999939 
C 176.727269 108.032328 176.727245 108.064717 176.7272 108.097107 
C 176.727155 108.129496 176.727085 108.161885 176.726995 108.194275 
z
" style="fill: #8c564b; stroke: #ffffff; stroke-linejoin: miter"/>
   </g>
   <g id="matplotlib.axis_1"/>
   <g id="matplotlib.axis_2"/>
   <g id="legend_1">
    <g id="patch_8">
     <path d="M 220.179688 154.439063 
L 341.420313 154.439063 
Q 343.420313 154.439063 343.420313 152.439063 
L 343.420313 63.560938 
Q 343.420313 61.560938 341.420313 61.560938 
L 220.179688 61.560938 
Q 218.179688 61.560938 218.179688 63.560938 
L 218.179688 152.439063 
Q 218.179688 154.439063 220.179688 154.439063 
L 220.179688 154.439063 
z
" style="fill: none; opacity: 0"/>
    </g>
    <g id="patch_9">
     <path d="M 222.179688 74.510938 
L 232.179688 74.510938 
L 232.179688 65.560938 
L 222.179688 65.560938 
z
" style="fill: #1f77b4; stroke: #ffffff; stroke-linejoin: miter"/>
    </g>
    <g id="text_1">
     <!-- Python (58.622%) -->
     <g transform="translate(240.179688 73.460938) scale(0.1 -0.1)">
      <defs>
       <path id="DejaVuSans-50" d="M 1259 4147 
L 1259 2394 
L 2053 2394 
Q 2494 2394 2734 2622 
Q 2975 2850 2975 3272 
Q 2975 3691 2734 3919 
Q 2494 4147 2053 4147 
L 1259 4147 
z
M 628 4666 
L 2053 4666 
Q 2838 4666 3239 4311 
Q 3641 3956 3641 3272 
Q 3641 2581 3239 2228 
Q 2838 1875 2053 1875 
L 1259 1875 
L 1259 0 
L 628 0 
L 628 4666 
z
" transform="scale(0.015625)"/>
       <path id="DejaVuSans-79" d="M 2059 -325 
Q 1816 -950 1584 -1140 
Q 1353 -1331 966 -1331 
L 506 -1331 
L 506 -850 
L 844 -850 
Q 1081 -850 1212 -737 
Q 1344 -625 1503 -206 
L 1606 56 
L 191 3500 
L 800 3500 
L 1894 763 
L 2988 3500 
L 3597 3500 
L 2059 -325 
z
" transform="scale(0.015625)"/>
       <path id="DejaVuSans-74" d="M 1172 4494 
L 1172 3500 
L 2356 3500 
L 2356 3053 
L 1172 3053 
L 1172 1153 
Q 1172 725 1289 603 
Q 1406 481 1766 481 
L 2356 481 
L 2356 0 
L 1766 0 
Q 1100 0 847 248 
Q 594 497 594 1153 
L 594 3053 
L 172 3053 
L 172 3500 
L 594 3500 
L 594 4494 
L 1172 4494 
z
" transform="scale(0.015625)"/>
       <path id="DejaVuSans-68" d="M 3513 2113 
L 3513 0 
L 2938 0 
L 2938 2094 
Q 2938 2591 2744 2837 
Q 2550 3084 2163 3084 
Q 1697 3084 1428 2787 
Q 1159 2491 1159 1978 
L 1159 0 
L 581 0 
L 581 4863 
L 1159 4863 
L 1159 2956 
Q 1366 3272 1645 3428 
Q 1925 3584 2291 3584 
Q 2894 3584 3203 3211 
Q 3513 2838 3513 2113 
z
" transform="scale(0.015625)"/>
       <path id="DejaVuSans-6f" d="M 1959 3097 
Q 1497 3097 1228 2736 
Q 959 2375 959 1747 
Q 959 1119 1226 758 
Q 1494 397 1959 397 
Q 2419 397 2687 759 
Q 2956 1122 2956 1747 
Q 2956 2369 2687 2733 
Q 2419 3097 1959 3097 
z
M 1959 3584 
Q 2709 3584 3137 3096 
Q 3566 2609 3566 1747 
Q 3566 888 3137 398 
Q 2709 -91 1959 -91 
Q 1206 -91 779 398 
Q 353 888 353 1747 
Q 353 2609 779 3096 
Q 1206 3584 1959 3584 
z
" transform="scale(0.015625)"/>
       <path id="DejaVuSans-6e" d="M 3513 2113 
L 3513 0 
L 2938 0 
L 2938 2094 
Q 2938 2591 2744 2837 
Q 2550 3084 2163 3084 
Q 1697 3084 1428 2787 
Q 1159 2491 1159 1978 
L 1159 0 
L 581 0 
L 581 3500 
L 1159 3500 
L 1159 2956 
Q 1366 3272 1645 3428 
Q 1925 3584 2291 3584 
Q 2894 3584 3203 3211 
Q 3513 2838 3513 2113 
z
" transform="scale(0.015625)"/>
       <path id="DejaVuSans-20" transform="scale(0.015625)"/>
       <path id="DejaVuSans-28" d="M 1984 4856 
Q 1566 4138 1362 3434 
Q 1159 2731 1159 2009 
Q 1159 1288 1364 580 
Q 1569 -128 1984 -844 
L 1484 -844 
Q 1016 -109 783 600 
Q 550 1309 550 2009 
Q 550 2706 781 3412 
Q 1013 4119 1484 4856 
L 1984 4856 
z
" transform="scale(0.015625)"/>
       <path id="DejaVuSans-35" d="M 691 4666 
L 3169 4666 
L 3169 4134 
L 1269 4134 
L 1269 2991 
Q 1406 3038 1543 3061 
Q 1681 3084 1819 3084 
Q 2600 3084 3056 2656 
Q 3513 2228 3513 1497 
Q 3513 744 3044 326 
Q 2575 -91 1722 -91 
Q 1428 -91 1123 -41 
Q 819 9 494 109 
L 494 744 
Q 775 591 1075 516 
Q 1375 441 1709 441 
Q 2250 441 2565 725 
Q 2881 1009 2881 1497 
Q 2881 1984 2565 2268 
Q 2250 2553 1709 2553 
Q 1456 2553 1204 2497 
Q 953 2441 691 2322 
L 691 4666 
z
" transform="scale(0.015625)"/>
       <path id="DejaVuSans-38" d="M 2034 2216 
Q 1584 2216 1326 1975 
Q 1069 1734 1069 1313 
Q 1069 891 1326 650 
Q 1584 409 2034 409 
Q 2484 409 2743 651 
Q 3003 894 3003 1313 
Q 3003 1734 2745 1975 
Q 2488 2216 2034 2216 
z
M 1403 2484 
Q 997 2584 770 2862 
Q 544 3141 544 3541 
Q 544 4100 942 4425 
Q 1341 4750 2034 4750 
Q 2731 4750 3128 4425 
Q 3525 4100 3525 3541 
Q 3525 3141 3298 2862 
Q 3072 2584 2669 2484 
Q 3125 2378 3379 2068 
Q 3634 1759 3634 1313 
Q 3634 634 3220 271 
Q 2806 -91 2034 -91 
Q 1263 -91 848 271 
Q 434 634 434 1313 
Q 434 1759 690 2068 
Q 947 2378 1403 2484 
z
M 1172 3481 
Q 1172 3119 1398 2916 
Q 1625 2713 2034 2713 
Q 2441 2713 2670 2916 
Q 2900 3119 2900 3481 
Q 2900 3844 2670 4047 
Q 2441 4250 2034 4250 
Q 1625 4250 1398 4047 
Q 1172 3844 1172 3481 
z
" transform="scale(0.015625)"/>
       <path id="DejaVuSans-2e" d="M 684 794 
L 1344 794 
L 1344 0 
L 684 0 
L 684 794 
z
" transform="scale(0.015625)"/>
       <path id="DejaVuSans-36" d="M 2113 2584 
Q 1688 2584 1439 2293 
Q 1191 2003 1191 1497 
Q 1191 994 1439 701 
Q 1688 409 2113 409 
Q 2538 409 2786 701 
Q 3034 994 3034 1497 
Q 3034 2003 2786 2293 
Q 2538 2584 2113 2584 
z
M 3366 4563 
L 3366 3988 
Q 3128 4100 2886 4159 
Q 2644 4219 2406 4219 
Q 1781 4219 1451 3797 
Q 1122 3375 1075 2522 
Q 1259 2794 1537 2939 
Q 1816 3084 2150 3084 
Q 2853 3084 3261 2657 
Q 3669 2231 3669 1497 
Q 3669 778 3244 343 
Q 2819 -91 2113 -91 
Q 1303 -91 875 529 
Q 447 1150 447 2328 
Q 447 3434 972 4092 
Q 1497 4750 2381 4750 
Q 2619 4750 2861 4703 
Q 3103 4656 3366 4563 
z
" transform="scale(0.015625)"/>
       <path id="DejaVuSans-32" d="M 1228 531 
L 3431 531 
L 3431 0 
L 469 0 
L 469 531 
Q 828 903 1448 1529 
Q 2069 2156 2228 2338 
Q 2531 2678 2651 2914 
Q 2772 3150 2772 3378 
Q 2772 3750 2511 3984 
Q 2250 4219 1831 4219 
Q 1534 4219 1204 4116 
Q 875 4013 500 3803 
L 500 4441 
Q 881 4594 1212 4672 
Q 1544 4750 1819 4750 
Q 2544 4750 2975 4387 
Q 3406 4025 3406 3419 
Q 3406 3131 3298 2873 
Q 3191 2616 2906 2266 
Q 2828 2175 2409 1742 
Q 1991 1309 1228 531 
z
" transform="scale(0.015625)"/>
       <path id="DejaVuSans-25" d="M 4653 2053 
Q 4381 2053 4226 1822 
Q 4072 1591 4072 1178 
Q 4072 772 4226 539 
Q 4381 306 4653 306 
Q 4919 306 5073 539 
Q 5228 772 5228 1178 
Q 5228 1588 5073 1820 
Q 4919 2053 4653 2053 
z
M 4653 2450 
Q 5147 2450 5437 2106 
Q 5728 1763 5728 1178 
Q 5728 594 5436 251 
Q 5144 -91 4653 -91 
Q 4153 -91 3862 251 
Q 3572 594 3572 1178 
Q 3572 1766 3864 2108 
Q 4156 2450 4653 2450 
z
M 1428 4353 
Q 1159 4353 1004 4120 
Q 850 3888 850 3481 
Q 850 3069 1003 2837 
Q 1156 2606 1428 2606 
Q 1700 2606 1854 2837 
Q 2009 3069 2009 3481 
Q 2009 3884 1853 4118 
Q 1697 4353 1428 4353 
z
M 4250 4750 
L 4750 4750 
L 1831 -91 
L 1331 -91 
L 4250 4750 
z
M 1428 4750 
Q 1922 4750 2215 4408 
Q 2509 4066 2509 3481 
Q 2509 2891 2217 2550 
Q 1925 2209 1428 2209 
Q 931 2209 642 2551 
Q 353 2894 353 3481 
Q 353 4063 643 4406 
Q 934 4750 1428 4750 
z
" transform="scale(0.015625)"/>
       <path id="DejaVuSans-29" d="M 513 4856 
L 1013 4856 
Q 1481 4119 1714 3412 
Q 1947 2706 1947 2009 
Q 1947 1309 1714 600 
Q 1481 -109 1013 -844 
L 513 -844 
Q 928 -128 1133 580 
Q 1338 1288 1338 2009 
Q 1338 2731 1133 3434 
Q 928 4138 513 4856 
z
" transform="scale(0.015625)"/>
      </defs>
      <use xlink:href="#DejaVuSans-50"/>
      <use xlink:href="#DejaVuSans-79" transform="translate(60.302734 0)"/>
      <use xlink:href="#DejaVuSans-74" transform="translate(119.482422 0)"/>
      <use xlink:href="#DejaVuSans-68" transform="translate(158.691406 0)"/>
      <use xlink:href="#DejaVuSans-6f" transform="translate(222.070312 0)"/>
      <use xlink:href="#DejaVuSans-6e" transform="translate(283.251953 0)"/>
      <use xlink:href="#DejaVuSans-20" transform="translate(346.630859 0)"/>
      <use xlink:href="#DejaVuSans-28" transform="translate(378.417969 0)"/>
      <use xlink:href="#DejaVuSans-35" transform="translate(417.431641 0)"/>
      <use xlink:href="#DejaVuSans-38" transform="translate(481.054688 0)"/>
      <use xlink:href="#DejaVuSans-2e" transform="translate(544.677734 0)"/>
      <use xlink:href="#DejaVuSans-36" transform="translate(576.464844 0)"/>
      <use xlink:href="#DejaVuSans-32" transform="translate(640.087891 0)"/>
      <use xlink:href="#DejaVuSans-32" transform="translate(703.710938 0)"/>
      <use xlink:href="#DejaVuSans-25" transform="translate(767.333984 0)"/>
      <use xlink:href="#DejaVuSans-29" transform="translate(862.353516 0)"/>
     </g>
    </g>
    <g id="patch_10">
     <path d="M 222.179688 89.490625 
L 232.179688 89.490625 
L 232.179688 80.540625 
L 222.179688 80.540625 
z
" style="fill: #ff7f0e; stroke: #ffffff; stroke-linejoin: miter"/>
    </g>
    <g id="text_2">
     <!-- CSS (31.152%) -->
     <g transform="translate(240.179688 88.440625) scale(0.1 -0.1)">
      <defs>
       <path id="DejaVuSans-43" d="M 4122 4306 
L 4122 3641 
Q 3803 3938 3442 4084 
Q 3081 4231 2675 4231 
Q 1875 4231 1450 3742 
Q 1025 3253 1025 2328 
Q 1025 1406 1450 917 
Q 1875 428 2675 428 
Q 3081 428 3442 575 
Q 3803 722 4122 1019 
L 4122 359 
Q 3791 134 3420 21 
Q 3050 -91 2638 -91 
Q 1578 -91 968 557 
Q 359 1206 359 2328 
Q 359 3453 968 4101 
Q 1578 4750 2638 4750 
Q 3056 4750 3426 4639 
Q 3797 4528 4122 4306 
z
" transform="scale(0.015625)"/>
       <path id="DejaVuSans-53" d="M 3425 4513 
L 3425 3897 
Q 3066 4069 2747 4153 
Q 2428 4238 2131 4238 
Q 1616 4238 1336 4038 
Q 1056 3838 1056 3469 
Q 1056 3159 1242 3001 
Q 1428 2844 1947 2747 
L 2328 2669 
Q 3034 2534 3370 2195 
Q 3706 1856 3706 1288 
Q 3706 609 3251 259 
Q 2797 -91 1919 -91 
Q 1588 -91 1214 -16 
Q 841 59 441 206 
L 441 856 
Q 825 641 1194 531 
Q 1563 422 1919 422 
Q 2459 422 2753 634 
Q 3047 847 3047 1241 
Q 3047 1584 2836 1778 
Q 2625 1972 2144 2069 
L 1759 2144 
Q 1053 2284 737 2584 
Q 422 2884 422 3419 
Q 422 4038 858 4394 
Q 1294 4750 2059 4750 
Q 2388 4750 2728 4690 
Q 3069 4631 3425 4513 
z
" transform="scale(0.015625)"/>
       <path id="DejaVuSans-33" d="M 2597 2516 
Q 3050 2419 3304 2112 
Q 3559 1806 3559 1356 
Q 3559 666 3084 287 
Q 2609 -91 1734 -91 
Q 1441 -91 1130 -33 
Q 819 25 488 141 
L 488 750 
Q 750 597 1062 519 
Q 1375 441 1716 441 
Q 2309 441 2620 675 
Q 2931 909 2931 1356 
Q 2931 1769 2642 2001 
Q 2353 2234 1838 2234 
L 1294 2234 
L 1294 2753 
L 1863 2753 
Q 2328 2753 2575 2939 
Q 2822 3125 2822 3475 
Q 2822 3834 2567 4026 
Q 2313 4219 1838 4219 
Q 1578 4219 1281 4162 
Q 984 4106 628 3988 
L 628 4550 
Q 988 4650 1302 4700 
Q 1616 4750 1894 4750 
Q 2613 4750 3031 4423 
Q 3450 4097 3450 3541 
Q 3450 3153 3228 2886 
Q 3006 2619 2597 2516 
z
" transform="scale(0.015625)"/>
       <path id="DejaVuSans-31" d="M 794 531 
L 1825 531 
L 1825 4091 
L 703 3866 
L 703 4441 
L 1819 4666 
L 2450 4666 
L 2450 531 
L 3481 531 
L 3481 0 
L 794 0 
L 794 531 
z
" transform="scale(0.015625)"/>
      </defs>
      <use xlink:href="#DejaVuSans-43"/>
      <use xlink:href="#DejaVuSans-53" transform="translate(69.824219 0)"/>
      <use xlink:href="#DejaVuSans-53" transform="translate(133.300781 0)"/>
      <use xlink:href="#DejaVuSans-20" transform="translate(196.777344 0)"/>
      <use xlink:href="#DejaVuSans-28" transform="translate(228.564453 0)"/>
      <use xlink:href="#DejaVuSans-33" transform="translate(267.578125 0)"/>
      <use xlink:href="#DejaVuSans-31" transform="translate(331.201172 0)"/>
      <use xlink:href="#DejaVuSans-2e" transform="translate(394.824219 0)"/>
      <use xlink:href="#DejaVuSans-31" transform="translate(426.611328 0)"/>
      <use xlink:href="#DejaVuSans-35" transform="translate(490.234375 0)"/>
      <use xlink:href="#DejaVuSans-32" transform="translate(553.857422 0)"/>
      <use xlink:href="#DejaVuSans-25" transform="translate(617.480469 0)"/>
      <use xlink:href="#DejaVuSans-29" transform="translate(712.5 0)"/>
     </g>
    </g>
    <g id="patch_11">
     <path d="M 222.179688 104.470313 
L 232.179688 104.470313 
L 232.179688 95.520313 
L 222.179688 95.520313 
z
" style="fill: #2ca02c; stroke: #ffffff; stroke-linejoin: miter"/>
    </g>
    <g id="text_3">
     <!-- HTML (5.236%) -->
     <g transform="translate(240.179688 103.420313) scale(0.1 -0.1)">
      <defs>
       <path id="DejaVuSans-48" d="M 628 4666 
L 1259 4666 
L 1259 2753 
L 3553 2753 
L 3553 4666 
L 4184 4666 
L 4184 0 
L 3553 0 
L 3553 2222 
L 1259 2222 
L 1259 0 
L 628 0 
L 628 4666 
z
" transform="scale(0.015625)"/>
       <path id="DejaVuSans-54" d="M -19 4666 
L 3928 4666 
L 3928 4134 
L 2272 4134 
L 2272 0 
L 1638 0 
L 1638 4134 
L -19 4134 
L -19 4666 
z
" transform="scale(0.015625)"/>
       <path id="DejaVuSans-4d" d="M 628 4666 
L 1569 4666 
L 2759 1491 
L 3956 4666 
L 4897 4666 
L 4897 0 
L 4281 0 
L 4281 4097 
L 3078 897 
L 2444 897 
L 1241 4097 
L 1241 0 
L 628 0 
L 628 4666 
z
" transform="scale(0.015625)"/>
       <path id="DejaVuSans-4c" d="M 628 4666 
L 1259 4666 
L 1259 531 
L 3531 531 
L 3531 0 
L 628 0 
L 628 4666 
z
" transform="scale(0.015625)"/>
      </defs>
      <use xlink:href="#DejaVuSans-48"/>
      <use xlink:href="#DejaVuSans-54" transform="translate(75.195312 0)"/>
      <use xlink:href="#DejaVuSans-4d" transform="translate(136.279297 0)"/>
      <use xlink:href="#DejaVuSans-4c" transform="translate(222.558594 0)"/>
      <use xlink:href="#DejaVuSans-20" transform="translate(278.271484 0)"/>
      <use xlink:href="#DejaVuSans-28" transform="translate(310.058594 0)"/>
      <use xlink:href="#DejaVuSans-35" transform="translate(349.072266 0)"/>
      <use xlink:href="#DejaVuSans-2e" transform="translate(412.695312 0)"/>
      <use xlink:href="#DejaVuSans-32" transform="translate(444.482422 0)"/>
      <use xlink:href="#DejaVuSans-33" transform="translate(508.105469 0)"/>
      <use xlink:href="#DejaVuSans-36" transform="translate(571.728516 0)"/>
      <use xlink:href="#DejaVuSans-25" transform="translate(635.351562 0)"/>
      <use xlink:href="#DejaVuSans-29" transform="translate(730.371094 0)"/>
     </g>
    </g>
    <g id="patch_12">
     <path d="M 222.179688 119.45 
L 232.179688 119.45 
L 232.179688 110.5 
L 222.179688 110.5 
z
" style="fill: #d62728; stroke: #ffffff; stroke-linejoin: miter"/>
    </g>
    <g id="text_4">
     <!-- kvlang (4.211%) -->
     <g transform="translate(240.179688 118.4) scale(0.1 -0.1)">
      <defs>
       <path id="DejaVuSans-6b" d="M 581 4863 
L 1159 4863 
L 1159 1991 
L 2875 3500 
L 3609 3500 
L 1753 1863 
L 3688 0 
L 2938 0 
L 1159 1709 
L 1159 0 
L 581 0 
L 581 4863 
z
" transform="scale(0.015625)"/>
       <path id="DejaVuSans-76" d="M 191 3500 
L 800 3500 
L 1894 563 
L 2988 3500 
L 3597 3500 
L 2284 0 
L 1503 0 
L 191 3500 
z
" transform="scale(0.015625)"/>
       <path id="DejaVuSans-6c" d="M 603 4863 
L 1178 4863 
L 1178 0 
L 603 0 
L 603 4863 
z
" transform="scale(0.015625)"/>
       <path id="DejaVuSans-61" d="M 2194 1759 
Q 1497 1759 1228 1600 
Q 959 1441 959 1056 
Q 959 750 1161 570 
Q 1363 391 1709 391 
Q 2188 391 2477 730 
Q 2766 1069 2766 1631 
L 2766 1759 
L 2194 1759 
z
M 3341 1997 
L 3341 0 
L 2766 0 
L 2766 531 
Q 2569 213 2275 61 
Q 1981 -91 1556 -91 
Q 1019 -91 701 211 
Q 384 513 384 1019 
Q 384 1609 779 1909 
Q 1175 2209 1959 2209 
L 2766 2209 
L 2766 2266 
Q 2766 2663 2505 2880 
Q 2244 3097 1772 3097 
Q 1472 3097 1187 3025 
Q 903 2953 641 2809 
L 641 3341 
Q 956 3463 1253 3523 
Q 1550 3584 1831 3584 
Q 2591 3584 2966 3190 
Q 3341 2797 3341 1997 
z
" transform="scale(0.015625)"/>
       <path id="DejaVuSans-67" d="M 2906 1791 
Q 2906 2416 2648 2759 
Q 2391 3103 1925 3103 
Q 1463 3103 1205 2759 
Q 947 2416 947 1791 
Q 947 1169 1205 825 
Q 1463 481 1925 481 
Q 2391 481 2648 825 
Q 2906 1169 2906 1791 
z
M 3481 434 
Q 3481 -459 3084 -895 
Q 2688 -1331 1869 -1331 
Q 1566 -1331 1297 -1286 
Q 1028 -1241 775 -1147 
L 775 -588 
Q 1028 -725 1275 -790 
Q 1522 -856 1778 -856 
Q 2344 -856 2625 -561 
Q 2906 -266 2906 331 
L 2906 616 
Q 2728 306 2450 153 
Q 2172 0 1784 0 
Q 1141 0 747 490 
Q 353 981 353 1791 
Q 353 2603 747 3093 
Q 1141 3584 1784 3584 
Q 2172 3584 2450 3431 
Q 2728 3278 2906 2969 
L 2906 3500 
L 3481 3500 
L 3481 434 
z
" transform="scale(0.015625)"/>
       <path id="DejaVuSans-34" d="M 2419 4116 
L 825 1625 
L 2419 1625 
L 2419 4116 
z
M 2253 4666 
L 3047 4666 
L 3047 1625 
L 3713 1625 
L 3713 1100 
L 3047 1100 
L 3047 0 
L 2419 0 
L 2419 1100 
L 313 1100 
L 313 1709 
L 2253 4666 
z
" transform="scale(0.015625)"/>
      </defs>
      <use xlink:href="#DejaVuSans-6b"/>
      <use xlink:href="#DejaVuSans-76" transform="translate(57.910156 0)"/>
      <use xlink:href="#DejaVuSans-6c" transform="translate(117.089844 0)"/>
      <use xlink:href="#DejaVuSans-61" transform="translate(144.873047 0)"/>
      <use xlink:href="#DejaVuSans-6e" transform="translate(206.152344 0)"/>
      <use xlink:href="#DejaVuSans-67" transform="translate(269.53125 0)"/>
      <use xlink:href="#DejaVuSans-20" transform="translate(333.007812 0)"/>
      <use xlink:href="#DejaVuSans-28" transform="translate(364.794922 0)"/>
      <use xlink:href="#DejaVuSans-34" transform="translate(403.808594 0)"/>
      <use xlink:href="#DejaVuSans-2e" transform="translate(467.431641 0)"/>
      <use xlink:href="#DejaVuSans-32" transform="translate(499.21875 0)"/>
      <use xlink:href="#DejaVuSans-31" transform="translate(562.841797 0)"/>
      <use xlink:href="#DejaVuSans-31" transform="translate(626.464844 0)"/>
      <use xlink:href="#DejaVuSans-25" transform="translate(690.087891 0)"/>
      <use xlink:href="#DejaVuSans-29" transform="translate(785.107422 0)"/>
     </g>
    </g>
    <g id="patch_13">
     <path d="M 222.179688 134.429688 
L 232.179688 134.429688 
L 232.179688 125.479687 
L 222.179688 125.479687 
z
" style="fill: #9467bd; stroke: #ffffff; stroke-linejoin: miter"/>
    </g>
    <g id="text_5">
     <!-- JavaScript (0.734%) -->
     <g transform="translate(240.179688 133.379687) scale(0.1 -0.1)">
      <defs>
       <path id="DejaVuSans-4a" d="M 628 4666 
L 1259 4666 
L 1259 325 
Q 1259 -519 939 -900 
Q 619 -1281 -91 -1281 
L -331 -1281 
L -331 -750 
L -134 -750 
Q 284 -750 456 -515 
Q 628 -281 628 325 
L 628 4666 
z
" transform="scale(0.015625)"/>
       <path id="DejaVuSans-63" d="M 3122 3366 
L 3122 2828 
Q 2878 2963 2633 3030 
Q 2388 3097 2138 3097 
Q 1578 3097 1268 2742 
Q 959 2388 959 1747 
Q 959 1106 1268 751 
Q 1578 397 2138 397 
Q 2388 397 2633 464 
Q 2878 531 3122 666 
L 3122 134 
Q 2881 22 2623 -34 
Q 2366 -91 2075 -91 
Q 1284 -91 818 406 
Q 353 903 353 1747 
Q 353 2603 823 3093 
Q 1294 3584 2113 3584 
Q 2378 3584 2631 3529 
Q 2884 3475 3122 3366 
z
" transform="scale(0.015625)"/>
       <path id="DejaVuSans-72" d="M 2631 2963 
Q 2534 3019 2420 3045 
Q 2306 3072 2169 3072 
Q 1681 3072 1420 2755 
Q 1159 2438 1159 1844 
L 1159 0 
L 581 0 
L 581 3500 
L 1159 3500 
L 1159 2956 
Q 1341 3275 1631 3429 
Q 1922 3584 2338 3584 
Q 2397 3584 2469 3576 
Q 2541 3569 2628 3553 
L 2631 2963 
z
" transform="scale(0.015625)"/>
       <path id="DejaVuSans-69" d="M 603 3500 
L 1178 3500 
L 1178 0 
L 603 0 
L 603 3500 
z
M 603 4863 
L 1178 4863 
L 1178 4134 
L 603 4134 
L 603 4863 
z
" transform="scale(0.015625)"/>
       <path id="DejaVuSans-70" d="M 1159 525 
L 1159 -1331 
L 581 -1331 
L 581 3500 
L 1159 3500 
L 1159 2969 
Q 1341 3281 1617 3432 
Q 1894 3584 2278 3584 
Q 2916 3584 3314 3078 
Q 3713 2572 3713 1747 
Q 3713 922 3314 415 
Q 2916 -91 2278 -91 
Q 1894 -91 1617 61 
Q 1341 213 1159 525 
z
M 3116 1747 
Q 3116 2381 2855 2742 
Q 2594 3103 2138 3103 
Q 1681 3103 1420 2742 
Q 1159 2381 1159 1747 
Q 1159 1113 1420 752 
Q 1681 391 2138 391 
Q 2594 391 2855 752 
Q 3116 1113 3116 1747 
z
" transform="scale(0.015625)"/>
       <path id="DejaVuSans-30" d="M 2034 4250 
Q 1547 4250 1301 3770 
Q 1056 3291 1056 2328 
Q 1056 1369 1301 889 
Q 1547 409 2034 409 
Q 2525 409 2770 889 
Q 3016 1369 3016 2328 
Q 3016 3291 2770 3770 
Q 2525 4250 2034 4250 
z
M 2034 4750 
Q 2819 4750 3233 4129 
Q 3647 3509 3647 2328 
Q 3647 1150 3233 529 
Q 2819 -91 2034 -91 
Q 1250 -91 836 529 
Q 422 1150 422 2328 
Q 422 3509 836 4129 
Q 1250 4750 2034 4750 
z
" transform="scale(0.015625)"/>
       <path id="DejaVuSans-37" d="M 525 4666 
L 3525 4666 
L 3525 4397 
L 1831 0 
L 1172 0 
L 2766 4134 
L 525 4134 
L 525 4666 
z
" transform="scale(0.015625)"/>
      </defs>
      <use xlink:href="#DejaVuSans-4a"/>
      <use xlink:href="#DejaVuSans-61" transform="translate(29.492188 0)"/>
      <use xlink:href="#DejaVuSans-76" transform="translate(90.771484 0)"/>
      <use xlink:href="#DejaVuSans-61" transform="translate(149.951172 0)"/>
      <use xlink:href="#DejaVuSans-53" transform="translate(211.230469 0)"/>
      <use xlink:href="#DejaVuSans-63" transform="translate(274.707031 0)"/>
      <use xlink:href="#DejaVuSans-72" transform="translate(329.6875 0)"/>
      <use xlink:href="#DejaVuSans-69" transform="translate(370.800781 0)"/>
      <use xlink:href="#DejaVuSans-70" transform="translate(398.583984 0)"/>
      <use xlink:href="#DejaVuSans-74" transform="translate(462.060547 0)"/>
      <use xlink:href="#DejaVuSans-20" transform="translate(501.269531 0)"/>
      <use xlink:href="#DejaVuSans-28" transform="translate(533.056641 0)"/>
      <use xlink:href="#DejaVuSans-30" transform="translate(572.070312 0)"/>
      <use xlink:href="#DejaVuSans-2e" transform="translate(635.693359 0)"/>
      <use xlink:href="#DejaVuSans-37" transform="translate(667.480469 0)"/>
      <use xlink:href="#DejaVuSans-33" transform="translate(731.103516 0)"/>
      <use xlink:href="#DejaVuSans-34" transform="translate(794.726562 0)"/>
      <use xlink:href="#DejaVuSans-25" transform="translate(858.349609 0)"/>
      <use xlink:href="#DejaVuSans-29" transform="translate(953.369141 0)"/>
     </g>
    </g>
    <g id="patch_14">
     <path d="M 222.179688 149.409375 
L 232.179688 149.409375 
L 232.179688 140.459375 
L 222.179688 140.459375 
z
" style="fill: #8c564b; stroke: #ffffff; stroke-linejoin: miter"/>
    </g>
    <g id="text_6">
     <!-- Batchfile (0.045%) -->
     <g transform="translate(240.179688 148.359375) scale(0.1 -0.1)">
      <defs>
       <path id="DejaVuSans-42" d="M 1259 2228 
L 1259 519 
L 2272 519 
Q 2781 519 3026 730 
Q 3272 941 3272 1375 
Q 3272 1813 3026 2020 
Q 2781 2228 2272 2228 
L 1259 2228 
z
M 1259 4147 
L 1259 2741 
L 2194 2741 
Q 2656 2741 2882 2914 
Q 3109 3088 3109 3444 
Q 3109 3797 2882 3972 
Q 2656 4147 2194 4147 
L 1259 4147 
z
M 628 4666 
L 2241 4666 
Q 2963 4666 3353 4366 
Q 3744 4066 3744 3513 
Q 3744 3084 3544 2831 
Q 3344 2578 2956 2516 
Q 3422 2416 3680 2098 
Q 3938 1781 3938 1306 
Q 3938 681 3513 340 
Q 3088 0 2303 0 
L 628 0 
L 628 4666 
z
" transform="scale(0.015625)"/>
       <path id="DejaVuSans-66" d="M 2375 4863 
L 2375 4384 
L 1825 4384 
Q 1516 4384 1395 4259 
Q 1275 4134 1275 3809 
L 1275 3500 
L 2222 3500 
L 2222 3053 
L 1275 3053 
L 1275 0 
L 697 0 
L 697 3053 
L 147 3053 
L 147 3500 
L 697 3500 
L 697 3744 
Q 697 4328 969 4595 
Q 1241 4863 1831 4863 
L 2375 4863 
z
" transform="scale(0.015625)"/>
       <path id="DejaVuSans-65" d="M 3597 1894 
L 3597 1613 
L 953 1613 
Q 991 1019 1311 708 
Q 1631 397 2203 397 
Q 2534 397 2845 478 
Q 3156 559 3463 722 
L 3463 178 
Q 3153 47 2828 -22 
Q 2503 -91 2169 -91 
Q 1331 -91 842 396 
Q 353 884 353 1716 
Q 353 2575 817 3079 
Q 1281 3584 2069 3584 
Q 2775 3584 3186 3129 
Q 3597 2675 3597 1894 
z
M 3022 2063 
Q 3016 2534 2758 2815 
Q 2500 3097 2075 3097 
Q 1594 3097 1305 2825 
Q 1016 2553 972 2059 
L 3022 2063 
z
" transform="scale(0.015625)"/>
      </defs>
      <use xlink:href="#DejaVuSans-42"/>
      <use xlink:href="#DejaVuSans-61" transform="translate(68.603516 0)"/>
      <use xlink:href="#DejaVuSans-74" transform="translate(129.882812 0)"/>
      <use xlink:href="#DejaVuSans-63" transform="translate(169.091797 0)"/>
      <use xlink:href="#DejaVuSans-68" transform="translate(224.072266 0)"/>
      <use xlink:href="#DejaVuSans-66" transform="translate(287.451172 0)"/>
      <use xlink:href="#DejaVuSans-69" transform="translate(322.65625 0)"/>
      <use xlink:href="#DejaVuSans-6c" transform="translate(350.439453 0)"/>
      <use xlink:href="#DejaVuSans-65" transform="translate(378.222656 0)"/>
      <use xlink:href="#DejaVuSans-20" transform="translate(439.746094 0)"/>
      <use xlink:href="#DejaVuSans-28" transform="translate(471.533203 0)"/>
      <use xlink:href="#DejaVuSans-30" transform="translate(510.546875 0)"/>
      <use xlink:href="#DejaVuSans-2e" transform="translate(574.169922 0)"/>
      <use xlink:href="#DejaVuSans-30" transform="translate(605.957031 0)"/>
      <use xlink:href="#DejaVuSans-34" transform="translate(669.580078 0)"/>
      <use xlink:href="#DejaVuSans-35" transform="translate(733.203125 0)"/>
      <use xlink:href="#DejaVuSans-25" transform="translate(796.826172 0)"/>
      <use xlink:href="#DejaVuSans-29" transform="translate(891.845703 0)"/>
     </g>
    </g>
   </g>
  </g>
 </g>
</svg>
